<svg width="54" height="54" viewBox="0 0 54 54" fill="none" xmlns="http://www.w3.org/2000/svg">
<path d="M20.0387 47.7468C22.1667 48.3896 24.3169 48.7664 26.6 48.7664C32.479 48.7664 38.1172 46.431 42.2742 42.274C46.4313 38.1169 48.7667 32.4787 48.7667 26.5998C48.7667 23.6888 48.1933 20.8063 47.0793 18.117C45.9654 15.4276 44.3326 12.9839 42.2742 10.9256C40.2159 8.86721 37.7722 7.23442 35.0828 6.12044C32.3934 5.00646 29.511 4.43311 26.6 4.43311C23.689 4.43311 20.8066 5.00646 18.1172 6.12044C15.4278 7.23442 12.9842 8.86721 10.9258 10.9256C6.76876 15.0826 4.43335 20.7208 4.43335 26.5998C4.43335 36.0206 10.3518 44.1114 18.7087 47.3034C18.5092 45.5744 18.3097 42.7149 18.7087 40.7421L21.2579 29.7918C21.2579 29.7918 20.615 28.5061 20.615 26.4668C20.615 23.4078 22.5214 21.1246 24.6937 21.1246C26.6 21.1246 27.4867 22.5211 27.4867 24.3166C27.4867 26.2229 26.2232 28.9494 25.5803 31.5651C25.2035 33.7374 26.733 35.6438 28.9497 35.6438C32.8954 35.6438 35.9543 31.4321 35.9543 25.4914C35.9543 20.1714 32.1417 16.5361 26.6665 16.5361C20.4155 16.5361 16.7359 21.1911 16.7359 26.0899C16.7359 27.9963 17.3565 29.9248 18.3762 31.1883C18.5757 31.3213 18.5757 31.4986 18.5092 31.8311L17.8664 34.2473C17.8664 34.6241 17.6225 34.7571 17.2457 34.4911C14.4083 33.2498 12.768 29.2154 12.768 25.9569C12.768 18.9523 17.7333 12.5904 27.3093 12.5904C34.9347 12.5904 40.8754 18.0656 40.8754 25.3363C40.8754 32.9616 36.1539 39.0796 29.393 39.0796C27.2429 39.0796 25.137 37.9269 24.3834 36.5748L22.8982 41.8283C22.3883 43.7346 20.9918 46.2838 20.0387 47.8133V47.7468Z" fill="#CCCCCC"/>
</svg>
